<?xml version="1.0" encoding="utf-8"?>
<!-- Generator: Adobe Illustrator 21.1.0, SVG Export Plug-In . SVG Version: 6.00 Build 0)  -->
<svg version="1.1" id="Layer_1" xmlns="http://www.w3.org/2000/svg" xmlns:xlink="http://www.w3.org/1999/xlink" x="0px" y="0px"
	 viewBox="0 0 160 26" style="enable-background:new 0 0 160 26;" xml:space="preserve">
<style type="text/css">
	.st0{fill:#FFFFFF;}
	.st1{fill:#4AAED0;}
</style>
<g>
	<path class="st0" d="M9.7,8.1c0,0,1.6,2.2,2.7,5.1c1.1,2.9,1.2,5.4,1.2,5.4s-1.6-2.2-2.7-5.1C9.8,10.6,9.7,8.1,9.7,8.1 M5.6,16.3
		c0.6,3.7,3.7,5.5,7,4c3.3-1.4,5.5-4.9,4.9-9.3c-0.6-4.3-3.7-5.5-7-4C7.2,8.5,5,12.7,5.6,16.3"/>
	<path class="st0" d="M1.1,18c-0.8-3.5,3.2-8.2,9-10.5C15.9,5.1,21.2,6,22.1,9.5c0.8,3.5-3.2,8.2-9,10.5C7.2,22.3,1.9,21.4,1.1,18
		 M20.1,17.6c4.3-6,3.9-12.7-0.8-14.8c-4.7-2.2-12.1,1-16.3,7c-4.3,6-3.9,12.7,0.8,14.8C8.5,26.8,15.9,23.6,20.1,17.6"/>
</g>
<path class="st0" d="M40.5,19.7H30.2v-12h2.1v9.9h8.3V19.7z"/>
<path class="st0" d="M55.5,13.6c0,1.8-0.6,3.2-1.7,4.4c-1.1,1.2-2.6,1.7-4.3,1.7h-3.4c-1.7,0-3.2-0.6-4.3-1.7
	c-1.1-1.2-1.7-2.6-1.7-4.4c0-1.8,0.6-3.2,1.7-4.3c1.1-1.1,2.6-1.6,4.4-1.6h3.4c1.8,0,3.2,0.5,4.4,1.6C54.9,10.4,55.5,11.8,55.5,13.6
	z M53.4,13.8c0-1.2-0.4-2.1-1.1-2.8c-0.7-0.7-1.7-1.1-2.9-1.1h-3.4c-1.1,0-2.1,0.4-2.8,1.1c-0.7,0.7-1.1,1.7-1.1,2.8
	c0,1.1,0.4,2.1,1.1,2.8c0.7,0.7,1.7,1.1,2.8,1.1h3.4c1.2,0,2.1-0.4,2.9-1.1C53,15.8,53.4,14.9,53.4,13.8z"/>
<path class="st0" d="M69.8,19.7l-2.7,0l-2-3.4h-5.7l1.3-2.1h3.2l-2.1-3.5l-5.4,8.9l-2.7,0l6.5-10.8c0.2-0.3,0.4-0.5,0.7-0.8
	c0.4-0.3,0.7-0.4,0.9-0.4c0.3,0,0.6,0.1,0.9,0.4c0.3,0.2,0.5,0.5,0.7,0.8L69.8,19.7z"/>
<path class="st0" d="M83.4,13.6c0,1.8-0.6,3.2-1.7,4.4c-1.1,1.2-2.6,1.7-4.3,1.7h-6.8v-12h6.8c1.8,0,3.2,0.5,4.4,1.6
	C82.8,10.4,83.4,11.8,83.4,13.6z M81.3,13.8c0-1.2-0.4-2.1-1.1-2.8c-0.7-0.7-1.7-1.1-2.8-1.1h-4.7v7.8h4.7c1.1,0,2.1-0.4,2.8-1.1
	C80.9,15.8,81.3,14.9,81.3,13.8z"/>
<path class="st0" d="M91,19.7h-2.1v-12H91V19.7z"/>
<path class="st0" d="M110.4,19.7H108l-1.7-8.4l-4,7.8c-0.3,0.5-0.6,0.8-1.1,0.8c-0.5,0-0.9-0.3-1.2-0.8l-4-7.7l-1.7,8.4h-2.4l2.7-11
	c0.1-0.3,0.2-0.6,0.5-0.8c0.2-0.2,0.5-0.4,0.8-0.4c0.5,0,0.9,0.4,1.3,1.2l4,7.9l4-7.9c0.4-0.8,0.8-1.2,1.3-1.2
	c0.3,0,0.6,0.1,0.8,0.4c0.2,0.2,0.4,0.5,0.5,0.8L110.4,19.7z"/>
<path class="st0" d="M124.4,12c0,1.3-0.5,2.4-1.4,3.2c-0.9,0.8-2,1.1-3.4,1.1h-5.3v-2.1h5.6c0.7,0,1.3-0.2,1.7-0.6
	c0.5-0.4,0.7-1,0.7-1.6c0-0.7-0.2-1.2-0.7-1.6c-0.5-0.4-1-0.6-1.7-0.6h-6.9v9.9H111v-12h8.6c1.3,0,2.5,0.4,3.4,1.1
	C123.9,9.6,124.4,10.7,124.4,12z"/>
<path class="st0" d="M137.5,19.7l-2.7,0l-2-3.4h-5.7l1.3-2.1h3.2l-2.1-3.5l-5.4,8.9l-2.7,0l6.5-10.8c0.2-0.3,0.4-0.5,0.7-0.8
	c0.4-0.3,0.7-0.4,0.9-0.4c0.3,0,0.6,0.1,0.9,0.4c0.3,0.2,0.5,0.5,0.7,0.8L137.5,19.7z"/>
<path class="st0" d="M148.6,19.7h-6.8c-1.7,0-3.2-0.6-4.3-1.7c-1.1-1.2-1.7-2.6-1.7-4.4c0-1.8,0.6-3.2,1.7-4.3
	c1.1-1.1,2.6-1.6,4.3-1.6h6.8v2.1h-6.8c-1.1,0-2.1,0.4-2.8,1.1c-0.7,0.7-1.1,1.7-1.1,2.8c0,1.1,0.4,2.1,1.1,2.8
	c0.7,0.7,1.7,1.1,2.8,1.1h6.8V19.7z"/>
<path class="st0" d="M160,9.8h-4.7v9.9h-2.1V9.8h-4.7V7.7H160V9.8z"/>
</svg>
